<?xml version="1.0" encoding="iso-8859-1"?>
<!-- Generator: Adobe Illustrator 22.0.1, SVG Export Plug-In . SVG Version: 6.00 Build 0)  -->
<svg version="1.1" xmlns="http://www.w3.org/2000/svg" xmlns:xlink="http://www.w3.org/1999/xlink" x="0px" y="0px"
	 viewBox="0 0 512 512" style="enable-background:new 0 0 512 512;" xml:space="preserve">
<g id="BULINE">
	<path id="XMLID_1678_" style="fill:#487FDE;" d="M512,256c0,70.692-28.654,134.692-74.981,181.019S326.692,512,256,512
		s-134.692-28.654-181.019-74.981S0,326.692,0,256S28.654,121.308,74.981,74.981S185.308,0,256,0s134.692,28.654,181.019,74.981
		S512,185.308,512,256z"/>
</g>
<g id="Icons">
	<g id="XMLID_1599_">
		<path id="XMLID_1784_" style="fill:#FFFFFF;" d="M507.11,306.01c-7.045,35.58-21.462,68.507-41.595,97.124
			s-45.98,52.921-75.885,71.256c-15.795,9.69-32.722,17.712-50.537,23.822s-36.518,10.307-55.862,12.348
			c-4.225,0.45-8.482,0.797-12.769,1.037s-8.601,0.372-12.941,0.393c-0.255,0.005-0.508,0.008-0.76,0.009S256.255,512,256,512
			c-3.695,0-7.372-0.078-11.03-0.233s-7.295-0.387-10.91-0.697c-0.19-0.015-0.378-0.03-0.565-0.045s-0.375-0.03-0.565-0.045
			c-9.5-0.85-18.85-2.22-28.021-4.08s-18.164-4.21-26.949-7.02c-9.905-3.165-19.547-6.917-28.886-11.216S130.7,479.52,122.01,474.17
			c-0.17-0.1-0.338-0.202-0.504-0.306s-0.331-0.209-0.496-0.314c-28.785-17.895-53.755-41.345-73.415-68.85
			s-34.01-59.065-41.555-93.18c10.21-3.605,24.472-7.22,40.687-7.257s34.383,3.502,52.402,14.207c4.6,2.73,9.318,5.263,14.155,7.531
			s9.795,4.274,14.875,5.949c2.915,0.965,6.06,1.942,9.379,2.885s6.811,1.85,10.421,2.675c0.16,0.04,0.32,0.077,0.48,0.115
			s0.32,0.075,0.48,0.115c2.05,0.455,4.138,0.885,6.251,1.28s4.254,0.755,6.409,1.07c0.17,0.03,0.342,0.058,0.515,0.083
			s0.345,0.048,0.515,0.068c1.285,0.18,2.572,0.345,3.862,0.491s2.583,0.274,3.878,0.379c0.165,0.015,0.33,0.03,0.495,0.044
			s0.33,0.026,0.495,0.036c6.515,0.49,13.035,0.468,19.291-0.299s12.249-2.276,17.709-4.761c0.16-0.065,0.317-0.135,0.474-0.207
			s0.311-0.147,0.466-0.223h0.005h0.005l11.82-0.105l11.82-0.105l0.565-0.005l0.565-0.005l2.01-0.02l2.01-0.02l6.24-0.055
			l6.24-0.055l3.48-0.03l3.48-0.03l3.88-0.035l3.88-0.035l8.975-0.08l8.975-0.08l13.435-0.125l13.435-0.125l2.415-0.02l2.415-0.02
			c0,0,0.725-0.62,2.11-1.658s3.43-2.493,6.07-4.163c2.3-1.445,5.053-3.055,8.216-4.691s6.739-3.299,10.684-4.849
			c1.325-0.525,2.695-1.035,4.106-1.528s2.864-0.967,4.354-1.423c10.11-3.07,22.005-5.095,35.183-4.459s27.638,3.934,42.878,11.509
			c0.29,0.14,0.577,0.288,0.864,0.439s0.571,0.306,0.856,0.461c1.455,0.815,5.837,3.037,11.489,3.821s12.571,0.129,19.101-4.811
			c0.895-0.675,1.8-1.335,2.725-1.964s1.87-1.226,2.845-1.776c3.535-1.99,9.383-5.02,16.51-7.744S498.455,306.775,507.11,306.01z"/>
		<g id="XMLID_1600_">
			<path id="XMLID_1802_" style="fill:#4C3328;" d="M389.63,474.39c-15.795,9.69-32.722,17.712-50.537,23.822
				s-36.518,10.307-55.862,12.348c-4.225,0.45-8.482,0.797-12.769,1.037s-8.601,0.372-12.941,0.393
				c-0.255,0.005-0.508,0.008-0.76,0.009S256.255,512,256,512c-3.695,0-7.372-0.078-11.03-0.233s-7.295-0.387-10.91-0.697
				c-0.19-0.015-0.378-0.03-0.565-0.045s-0.375-0.03-0.565-0.045c-9.5-0.85-18.85-2.22-28.021-4.08s-18.164-4.21-26.949-7.02
				c-9.905-3.165-19.547-6.917-28.886-11.216S130.7,479.52,122.01,474.17l4.29-29.615l4.29-29.615
				c0.15-1.025,0.312-2.045,0.486-3.06s0.359-2.025,0.554-3.03c0.2-1.01,0.413-2.015,0.636-3.014s0.459-1.991,0.704-2.976
				c0,0,0,0,0-0.001s0-0.004,0-0.009c0.105-0.395,0.207-0.79,0.312-1.184s0.213-0.786,0.328-1.176
				c0.24-0.915,0.498-1.828,0.766-2.735s0.549-1.81,0.834-2.705c0.105-0.32,0.21-0.64,0.316-0.959s0.214-0.636,0.324-0.951
				c0.33-0.955,0.67-1.905,1.02-2.85s0.71-1.885,1.08-2.82c1.625-4.05,3.465-7.992,5.506-11.81s4.284-7.51,6.714-11.06
				c0.065-0.095,0.133-0.193,0.2-0.29s0.135-0.195,0.2-0.29c0.035-0.05,0.067-0.098,0.101-0.144s0.069-0.091,0.109-0.136
				c-0.005-0.005-0.005-0.008-0.004-0.009s0.004-0.001,0.004-0.001c1.015-1.465,2.065-2.905,3.147-4.319s2.197-2.801,3.342-4.161
				c0.21-0.25,0.422-0.5,0.637-0.75s0.433-0.5,0.653-0.75c0.59-0.68,1.19-1.352,1.799-2.017s1.226-1.323,1.851-1.973
				c0.115-0.125,0.23-0.247,0.347-0.369s0.237-0.241,0.362-0.361c1.335-1.375,2.705-2.718,4.109-4.025s2.841-2.58,4.311-3.815
				c2.67-2.25,5.445-4.378,8.317-6.375s5.843-3.865,8.903-5.595v-0.005v-0.005c0.07-0.035,0.14-0.075,0.211-0.116
				s0.144-0.084,0.219-0.124c0.97-0.54,1.95-1.07,2.94-1.586s1.99-1.019,3-1.504c1.98-0.96,3.993-1.865,6.038-2.714
				s4.122-1.641,6.232-2.376l2.42-0.835l2.42-0.835c0,0,0,0,0.001-0.001s0.004-0.004,0.009-0.009l2.125-0.73l2.125-0.73l0.16-0.055
				l0.16-0.055l0.645-0.225l0.645-0.225l0.275-0.095l0.275-0.095l0.42-0.145l0.42-0.145l0.06-0.02l0.06-0.02l1.665-0.58l1.665-0.58
				l3.925-1.36l3.925-1.36c0.005,0,0.01,0,0.015-0.001s0.01-0.004,0.015-0.009c0.835-0.29,1.538-0.822,2.031-1.504
				s0.779-1.511,0.779-2.396V289v-19.78h25.25h25.25v20.11v20.11c0,0.81,0.235,1.58,0.654,2.231s1.021,1.184,1.756,1.519l4.66,2.11
				l4.66,2.11l0.33,0.15l0.33,0.15l1.055,0.48l1.055,0.48l3.04,1.025l3.04,1.025c0.225,0.075,0.45,0.153,0.675,0.233
				s0.45,0.162,0.675,0.247c1.075,0.37,2.142,0.763,3.2,1.17s2.105,0.83,3.14,1.26c0.625,0.265,1.253,0.535,1.878,0.811
				s1.247,0.559,1.862,0.849c0.31,0.145,0.62,0.29,0.928,0.436s0.612,0.294,0.913,0.444c0.47,0.225,0.935,0.453,1.399,0.684
				s0.926,0.466,1.391,0.706c0.045,0.025,0.092,0.05,0.14,0.075s0.095,0.05,0.14,0.075l0.57,0.3l0.57,0.3
				c0.185,0.1,0.37,0.2,0.555,0.302s0.37,0.207,0.555,0.317c0.605,0.33,1.208,0.67,1.808,1.016s1.197,0.699,1.792,1.054
				c1.85,1.12,3.667,2.287,5.447,3.502s3.522,2.478,5.222,3.788c0.42,0.325,0.84,0.655,1.26,0.987s0.84,0.668,1.26,1.003
				c2.215,1.805,4.36,3.69,6.431,5.651s4.069,3.999,5.989,6.109c1.445,1.585,2.847,3.21,4.205,4.874s2.67,3.366,3.935,5.106
				c0.355,0.49,0.708,0.982,1.056,1.479s0.694,0.996,1.034,1.501h0.005h0.005c1.175,1.73,2.307,3.492,3.394,5.286
				s2.126,3.619,3.116,5.474c3.375,6.3,6.2,12.942,8.419,19.856s3.831,14.099,4.781,21.484l3.68,28.645L389.63,474.39z"/>
			<path id="XMLID_1715_" style="fill:#402B23;" d="M261.13,312.7l-3.925,1.36l-3.925,1.36l-2.06,0.715l-2.06,0.715l-1.165,0.4
				l-1.165,0.4l-2.125,0.73l-2.125,0.73c-0.005,0.005-0.008,0.008-0.009,0.009s-0.001,0.001-0.001,0.001l-2.42,0.84l-2.42,0.84
				c-0.355,0.12-0.707,0.242-1.059,0.369s-0.701,0.256-1.051,0.391c-0.015,0-0.03,0.003-0.045,0.007s-0.03,0.012-0.045,0.022h-0.005
				h-0.005c-0.165,0.06-0.33,0.123-0.495,0.186s-0.33,0.129-0.495,0.194c-0.005-0.005-0.01-0.003-0.014,0.001
				s-0.006,0.009-0.006,0.009c-0.075,0.025-0.15,0.05-0.225,0.078s-0.15,0.057-0.225,0.092c-0.185,0.065-0.368,0.135-0.549,0.206
				s-0.361,0.144-0.541,0.214c-0.005,0.005-0.013,0.008-0.02,0.01s-0.015,0.005-0.02,0.01c-1.4,0.555-2.785,1.138-4.154,1.746
				s-2.721,1.244-4.056,1.904c-0.88,0.435-1.753,0.88-2.619,1.335s-1.726,0.92-2.581,1.395c-0.075,0.04-0.148,0.083-0.219,0.124
				s-0.141,0.081-0.211,0.116v0.005v0.005c-1.73,0.98-3.43,2.003-5.1,3.068s-3.31,2.172-4.92,3.322c-0.005,0-0.008,0-0.009,0
				s-0.001,0-0.001,0c-0.12,0.085-0.24,0.173-0.36,0.26s-0.24,0.175-0.36,0.26c-3.535,2.565-6.915,5.325-10.128,8.266
				s-6.257,6.064-9.122,9.354c-0.22,0.25-0.438,0.5-0.653,0.75s-0.428,0.5-0.637,0.75c-0.595,0.71-1.185,1.427-1.768,2.153
				s-1.157,1.458-1.722,2.198c-0.04,0.045-0.078,0.092-0.114,0.14s-0.071,0.095-0.106,0.14c-0.58,0.77-1.155,1.55-1.721,2.338
				s-1.124,1.583-1.669,2.383c-0.805,1.175-1.59,2.365-2.352,3.571s-1.503,2.429-2.218,3.669c0,0,0,0,0,0.001s0,0.004,0,0.009
				c-0.03,0.05-0.057,0.097-0.085,0.145s-0.055,0.095-0.085,0.145c-1.425,2.45-2.762,4.957-4.01,7.516s-2.405,5.169-3.47,7.824
				c-0.37,0.935-0.73,1.873-1.08,2.815s-0.69,1.89-1.02,2.845c-0.11,0.315-0.218,0.632-0.324,0.951s-0.211,0.639-0.316,0.959
				c-0.29,0.9-0.57,1.802-0.838,2.709s-0.522,1.816-0.762,2.731c-0.115,0.39-0.223,0.783-0.328,1.176s-0.207,0.789-0.312,1.184
				c0,0.005,0,0.007,0,0.009s0,0.001,0,0.001c-0.245,0.985-0.48,1.978-0.704,2.976s-0.436,2.004-0.636,3.014
				c-0.195,1.005-0.38,2.017-0.554,3.034s-0.336,2.036-0.486,3.056l-4.055,28.005l-4.055,28.005c-0.36,2.49-0.087,4.992,0.749,7.286
				s2.236,4.379,4.131,6.034c0.01,0.01,0.02,0.02,0.03,0.03s0.02,0.02,0.03,0.03c3.195,2.805,6.463,5.505,9.799,8.097
				s6.741,5.077,10.211,7.452c-9.905-3.165-19.547-6.917-28.886-11.216S130.7,479.52,122.01,474.17
				c-0.17-0.1-0.338-0.202-0.504-0.306s-0.331-0.209-0.496-0.314l4.245-29.305l4.245-29.305c0.15-1.02,0.31-2.04,0.483-3.056
				s0.357-2.029,0.558-3.034c0.2-1.01,0.412-2.015,0.636-3.014s0.459-1.991,0.704-2.976c0,0,0,0,0-0.001s0-0.004,0-0.009
				c0.105-0.395,0.208-0.79,0.311-1.184s0.209-0.786,0.319-1.176c0.245-0.915,0.503-1.825,0.771-2.731s0.549-1.809,0.839-2.709
				c0.105-0.32,0.21-0.64,0.316-0.959s0.214-0.636,0.324-0.951c0.33-0.955,0.67-1.903,1.02-2.845s0.71-1.88,1.08-2.815
				c1.625-4.055,3.465-8,5.506-11.819s4.284-7.511,6.714-11.061c0.1-0.145,0.2-0.29,0.301-0.434s0.204-0.286,0.309-0.426
				c0.035-0.05,0.07-0.1,0.105-0.15s0.07-0.1,0.105-0.15c0,0,0,0,0.001,0s0.004,0,0.009,0c0.975-1.415,1.988-2.805,3.034-4.17
				s2.126-2.705,3.236-4.02c0.21-0.25,0.423-0.5,0.636-0.75s0.429-0.5,0.644-0.75c0.705-0.81,1.42-1.608,2.146-2.395
				s1.464-1.565,2.214-2.335c0.125-0.13,0.253-0.26,0.38-0.389s0.255-0.256,0.38-0.381c1.24-1.255,2.507-2.478,3.802-3.668
				s2.617-2.348,3.967-3.473c2.655-2.235,5.415-4.347,8.271-6.331s5.809-3.839,8.849-5.559v-0.005v-0.005
				c0.07-0.035,0.14-0.075,0.211-0.116s0.144-0.084,0.219-0.124c1.09-0.61,2.19-1.202,3.301-1.776s2.234-1.129,3.369-1.664
				c1.865-0.89,3.76-1.73,5.684-2.519s3.876-1.526,5.856-2.211l2.415-0.84l2.415-0.84h0.005h0.005c0,0,0,0,0.001-0.001
				s0.004-0.004,0.009-0.009l2.125-0.73l2.125-0.73l0.58-0.2l0.58-0.2l0.495-0.17l0.495-0.17l0.275-0.095l0.275-0.095l0.45-0.155
				l0.45-0.155l0.06-0.02l0.06-0.02l1.365-0.475l1.365-0.475l3.925-1.36l3.925-1.36c0.005-0.005,0.01-0.008,0.014-0.009
				s0.006-0.001,0.006-0.001c0.84-0.29,1.545-0.825,2.04-1.509s0.78-1.516,0.78-2.401V289v-19.78h15.81h15.81V289v19.78
				c0,0.4-0.06,0.79-0.171,1.16s-0.274,0.72-0.479,1.04c-0.245,0.39-0.555,0.738-0.919,1.028s-0.781,0.522-1.241,0.682
				c-0.005,0-0.01,0-0.015,0.001C261.14,312.692,261.135,312.695,261.13,312.7z"/>
			<g id="XMLID_1639_">
				<path id="XMLID_1641_" style="fill:#FFFFFF;" d="M205.019,430.659v-29.471v-29.471h-3.5h-3.5v29.471v29.471
					c-3.043,0.779-5.69,2.545-7.577,4.937c-1.887,2.392-3.013,5.411-3.013,8.697c0,3.891,1.577,7.414,4.127,9.964
					c2.55,2.55,6.073,4.127,9.964,4.127s7.414-1.577,9.964-4.127c2.55-2.55,4.127-6.073,4.127-9.964
					c0-3.286-1.126-6.305-3.013-8.697S208.062,431.438,205.019,430.659z"/>
				<path id="XMLID_1640_" style="fill:#F4D9B7;" d="M203.926,458.138c-0.425,0.085-0.857,0.147-1.296,0.189
					c-0.439,0.041-0.884,0.061-1.334,0.061c-3.89,0-7.412-1.578-9.962-4.128c-2.55-2.55-4.127-6.073-4.127-9.963
					c0-3.29,1.127-6.31,3.015-8.702c1.887-2.393,4.535-4.158,7.575-4.938v-29.47v-29.47h2.625h2.625v29.47v29.47
					c-3.04,0.78-5.688,2.545-7.575,4.938c-1.887,2.392-3.015,5.412-3.015,8.702c0,3.445,1.235,6.6,3.286,9.046
					S200.661,457.528,203.926,458.138z"/>
			</g>
			<path id="XMLID_1638_" style="fill:#D3A971;" d="M150.189,363.545l41.935,13.42l41.935,13.42V356.18v-34.205l-26.54-8.629
				l-26.54-8.629c0,0-7.021,4.821-15.247,12.751c-8.226,7.93-17.659,18.968-22.481,31.403c-1.163,2.997-0.959,6.176,0.301,8.85
				C144.811,360.395,147.127,362.565,150.189,363.545z"/>
			<path id="XMLID_1637_" style="fill:#B79163;" d="M234.059,375.518v7.435v7.435l-41.935-13.42l-41.935-13.42
				c-3.06-0.98-5.375-3.15-6.635-5.825c-1.26-2.675-1.465-5.855-0.305-8.855c4.825-12.435,14.257-23.473,22.484-31.401
				c8.226-7.929,15.246-12.749,15.246-12.749l3.14,1.02l3.14,1.02c-4.34,4.015-9.187,8.993-13.606,14.659
				c-4.419,5.666-8.409,12.021-11.034,18.791c-1.165,2.995-0.963,6.172,0.297,8.846c1.26,2.674,3.578,4.844,6.643,5.824l32.25,10.32
				L234.059,375.518z"/>
			<path id="XMLID_1636_" style="fill:#BE9768;" d="M232.971,321.978v0.295v0.295c-2.325,0.925-4.607,1.923-6.849,2.99
				c-2.241,1.067-4.441,2.205-6.601,3.41c-0.075,0.04-0.148,0.082-0.219,0.124c-0.071,0.041-0.141,0.081-0.211,0.116v0.005v0.005
				c-5.685,3.215-11.055,6.902-16.069,11.009c-5.014,4.106-9.671,8.631-13.931,13.521c-0.22,0.25-0.438,0.5-0.653,0.75
				s-0.428,0.5-0.638,0.75c-0.635,0.755-1.262,1.517-1.881,2.289c-0.619,0.771-1.229,1.551-1.829,2.341
				c-0.58,0.77-1.155,1.55-1.721,2.338c-0.566,0.787-1.124,1.582-1.669,2.383c-0.84,1.225-1.655,2.465-2.445,3.721
				c-0.79,1.256-1.555,2.529-2.295,3.819l-13.135-4.2l-13.135-4.2l-0.295-0.095l-0.295-0.095c-0.74-0.235-1.437-0.542-2.087-0.911
				s-1.252-0.799-1.802-1.279c-0.11-0.095-0.218-0.193-0.324-0.293s-0.211-0.203-0.316-0.308c-1.48-1.51-2.493-3.42-2.93-5.484
				s-0.3-4.281,0.52-6.406c4.825-12.435,14.258-23.473,22.484-31.401s15.246-12.749,15.246-12.749l3.14,1.02l3.14,1.02l15.595,5.075
				l15.595,5.075l7.805,2.535L232.971,321.978z"/>
			<path id="XMLID_1635_" style="fill:#A4815A;" d="M168.471,354.878l7.81,2.5l7.81,2.5c-0.58,0.77-1.155,1.55-1.721,2.338
				c-0.566,0.787-1.124,1.582-1.669,2.383c-0.84,1.225-1.655,2.465-2.445,3.721c-0.79,1.256-1.555,2.529-2.295,3.819l-13.135-4.2
				l-13.135-4.2l-0.295-0.095l-0.295-0.095c-0.74-0.235-1.437-0.542-2.087-0.911s-1.252-0.799-1.802-1.279
				c-0.11-0.095-0.218-0.193-0.324-0.293s-0.211-0.203-0.316-0.308c-1.48-1.51-2.493-3.42-2.93-5.484s-0.3-4.281,0.52-6.406
				c4.825-12.435,14.258-23.473,22.484-31.401s15.246-12.749,15.246-12.749l3.14,1.02l3.14,1.02
				c-4.34,4.015-9.187,8.993-13.606,14.659c-4.419,5.666-8.409,12.021-11.034,18.791c-0.58,1.49-0.82,3.027-0.759,4.525
				s0.424,2.955,1.049,4.285c0.625,1.345,1.518,2.565,2.639,3.571C165.581,353.595,166.931,354.388,168.471,354.878z"/>
			<g id="XMLID_1632_">
				<path id="XMLID_1634_" style="fill:#FFFFFF;" d="M316.019,430.659v-29.471v-29.471h-3.5h-3.5v29.471v29.471
					c-3.043,0.779-5.69,2.545-7.577,4.937s-3.013,5.411-3.013,8.697c0,3.891,1.577,7.414,4.127,9.964
					c2.55,2.55,6.073,4.127,9.964,4.127s7.414-1.577,9.964-4.127c2.55-2.55,4.127-6.073,4.127-9.964
					c0-3.286-1.126-6.305-3.013-8.697S319.062,431.438,316.019,430.659z"/>
				<path id="XMLID_1633_" style="fill:#F4D9B7;" d="M314.926,458.138c-0.425,0.085-0.857,0.147-1.296,0.189
					c-0.439,0.041-0.884,0.061-1.334,0.061c-3.89,0-7.412-1.578-9.962-4.128c-2.55-2.55-4.128-6.073-4.128-9.963
					c0-3.29,1.127-6.31,3.015-8.702c1.887-2.393,4.535-4.158,7.575-4.938v-29.47v-29.47h2.625h2.625v29.47v29.47
					c-3.04,0.78-5.688,2.545-7.575,4.938c-1.888,2.392-3.015,5.412-3.015,8.702c0,3.445,1.235,6.6,3.286,9.046
					S311.661,457.528,314.926,458.138z"/>
			</g>
			<path id="XMLID_1631_" style="fill:#D3A971;" d="M367.103,363.545l-41.935,13.42l-41.935,13.42V356.18v-34.205l26.54-8.629
				l26.54-8.629c0,0,7.021,4.821,15.247,12.751s17.659,18.968,22.481,31.403c1.163,2.997,0.959,6.176-0.301,8.85
				C372.481,360.395,370.165,362.565,367.103,363.545z"/>
			<path id="XMLID_1630_" style="fill:#B79163;" d="M283.234,375.518v7.435v7.435l41.935-13.42l41.935-13.42
				c3.06-0.98,5.375-3.15,6.635-5.825c1.26-2.675,1.465-5.855,0.305-8.855c-4.825-12.435-14.257-23.473-22.484-31.401
				s-15.246-12.749-15.246-12.749l-3.14,1.02l-3.14,1.02c4.34,4.015,9.187,8.993,13.606,14.659
				c4.419,5.666,8.409,12.021,11.034,18.791c1.165,2.995,0.962,6.172-0.298,8.846c-1.26,2.674-3.577,4.844-6.642,5.824l-32.25,10.32
				L283.234,375.518z"/>
			<path id="XMLID_1629_" style="fill:#B8B8B8;" d="M372.272,201.092c0,33.965-12.718,64.715-33.28,86.974
				c-20.562,22.259-48.969,36.026-80.346,36.026s-59.783-13.767-80.346-36.026c-20.562-22.259-33.28-53.009-33.28-86.974
				s12.718-64.716,33.28-86.974s48.969-36.026,80.346-36.026s59.783,13.767,80.346,36.026
				C359.554,136.377,372.272,167.127,372.272,201.092z"/>
			<path id="XMLID_1628_" style="fill:#A2A2A2;" d="M286.425,320.328c-4.48,1.225-9.065,2.165-13.738,2.799
				c-4.673,0.634-9.432,0.961-14.262,0.961c-31.375,0-59.783-13.765-80.346-36.022c-20.564-22.258-33.284-53.008-33.284-86.978
				c0-33.965,12.72-64.715,33.284-86.974s48.971-36.026,80.346-36.026c4.83,0,9.59,0.327,14.262,0.961
				c4.672,0.634,9.258,1.574,13.738,2.799c-24.605,6.75-46.013,22.192-61.269,43.131c-15.256,20.939-24.361,47.374-24.361,76.109
				c0,28.74,9.105,55.175,24.361,76.112C240.412,298.138,261.82,313.578,286.425,320.328z"/>
			<path id="XMLID_1626_" style="fill:#FBDBC4;" d="M346.558,176.421c-0.035,0-0.07,0.002-0.104,0.005
				c-0.035,0.003-0.069,0.005-0.104,0.006v-16.82v-16.82c0-22.448-8.574-42.771-22.436-57.482
				c-13.862-14.711-33.012-23.81-54.165-23.81h-11.102h-11.102c-21.153,0-40.303,9.099-54.165,23.81s-22.436,35.034-22.436,57.482
				v29.827v29.827c0,22.252,8.854,36.941,20.935,48.896c12.081,11.955,27.39,21.176,40.3,32.49
				c7.686,6.736,17.077,10.104,26.468,10.104c9.391,0,18.782-3.368,26.468-10.104c11.991-10.509,26.047-19.216,37.664-29.986
				c11.617-10.769,20.795-23.601,23.03-42.36c0.125,0.005,0.249,0.015,0.374,0.023c0.124,0.008,0.249,0.015,0.376,0.015
				c4.847,0,9.235-1.965,12.411-5.141c3.176-3.176,5.141-7.564,5.141-12.411s-1.965-9.235-5.141-12.411
				C355.792,178.386,351.405,176.421,346.558,176.421z"/>
			<path id="XMLID_1624_" style="fill:#E2B493;" d="M206.041,202.448v-29.83v-29.83c0-21.125,7.598-40.37,20.05-54.825
				s29.76-24.12,49.18-26.085c-1.21-0.125-2.43-0.22-3.659-0.284s-2.466-0.096-3.711-0.096h-11.1h-11.1
				c-21.155,0-40.305,9.1-54.166,23.811c-13.861,14.711-22.434,35.034-22.434,57.479v16.882v16.882
				c-4.363,0.509-8.238,2.614-11.023,5.718c-2.785,3.103-4.478,7.205-4.478,11.704c0,4.591,1.763,8.767,4.65,11.892
				s6.895,5.198,11.387,5.583c2.226,18.773,11.402,31.614,23.02,42.389c11.618,10.774,25.679,19.483,37.674,29.992
				c6.435,5.64,14.065,8.92,21.889,9.839c7.824,0.919,15.841-0.524,23.051-4.329c-1.405-0.74-2.777-1.568-4.112-2.485
				c-1.335-0.918-2.633-1.925-3.888-3.025c-12.91-11.31-28.217-20.53-40.298-32.485
				C214.894,239.388,206.041,224.698,206.041,202.448z"/>
			<path style="fill:#3D2107;" d="M194.535,169.265c-1.229,0-2.42-0.648-3.061-1.798c-0.94-1.688-0.334-3.82,1.354-4.761
				c0.246-0.137,6.115-3.371,14.485-4.999c11.266-2.192,21.759-0.422,30.345,5.115c1.624,1.048,2.092,3.214,1.044,4.839
				c-1.05,1.624-3.215,2.091-4.839,1.044c-7.138-4.604-15.621-5.994-25.213-4.127c-7.288,1.417-12.365,4.215-12.416,4.243
				C195.696,169.122,195.111,169.265,194.535,169.265z"/>
			<path id="XMLID_1622_" style="fill:#1B305C;" d="M222.186,187.755c0,2.915-0.821,5.554-2.148,7.464
				c-1.327,1.91-3.16,3.092-5.185,3.092c-2.025,0-3.858-1.181-5.185-3.092c-1.327-1.91-2.148-4.549-2.148-7.464
				s0.821-5.554,2.148-7.464c1.327-1.91,3.16-3.092,5.185-3.092c2.025,0,3.858,1.181,5.185,3.092
				C221.365,182.201,222.186,184.84,222.186,187.755z"/>
			<path style="fill:#3D2107;" d="M279.776,169.265c-1.229,0-2.42-0.648-3.061-1.798c-0.94-1.688-0.334-3.82,1.354-4.761
				c0.246-0.137,6.115-3.371,14.485-4.999c11.262-2.191,21.758-0.424,30.344,5.115c1.624,1.048,2.092,3.215,1.044,4.839
				c-1.05,1.625-3.216,2.09-4.839,1.044c-7.138-4.604-15.62-5.994-25.212-4.127c-7.288,1.417-12.365,4.215-12.416,4.243
				C280.938,169.122,280.353,169.265,279.776,169.265z"/>
			<path id="XMLID_1620_" style="fill:#1B305C;" d="M307.427,187.755c0,2.915-0.821,5.554-2.148,7.464
				c-1.327,1.91-3.16,3.092-5.185,3.092s-3.858-1.181-5.185-3.092c-1.327-1.91-2.148-4.549-2.148-7.464s0.821-5.554,2.148-7.464
				c1.327-1.91,3.16-3.092,5.185-3.092s3.858,1.181,5.185,3.092C306.606,182.201,307.427,184.84,307.427,187.755z"/>
			<path id="XMLID_1619_" style="fill:#D0C09D;" d="M266.296,217.089h-8.318h-8.318c-1.224,0-2.332-0.496-3.134-1.298
				c-0.802-0.802-1.298-1.91-1.298-3.134v-0.402v-0.402c0-1.224,0.496-2.332,1.298-3.134c0.802-0.802,1.91-1.298,3.134-1.298h8.318
				h8.318c1.224,0,2.332,0.496,3.134,1.298c0.802,0.802,1.298,1.91,1.298,3.134v0.402v0.402c0,1.224-0.496,2.332-1.298,3.134
				S267.52,217.089,266.296,217.089z"/>
			<path id="XMLID_1613_" style="fill:#FFFFFF;" d="M239.231,228.832c-0.479,0-0.909,0.205-1.208,0.53s-0.47,0.769-0.431,1.247
				c0.448,5.507,2.943,10.813,6.71,14.742c3.767,3.929,8.807,6.481,14.344,6.481h0h0c5.537,0,10.577-2.552,14.344-6.481
				c3.767-3.929,6.262-9.235,6.71-14.742c0.039-0.478-0.131-0.922-0.431-1.247s-0.729-0.53-1.208-0.53h-19.415H239.231z"/>
			<path style="fill:#3D2107;" d="M228.184,183.478c-0.589,0-1.186-0.149-1.733-0.462c-5.047-2.885-10.479-3.763-16.15-2.609
				c-4.156,0.846-6.897,2.521-6.925,2.538c-1.641,1.013-3.795,0.517-4.816-1.117s-0.537-3.781,1.092-4.81
				c0.151-0.096,3.772-2.355,9.255-3.471c7.277-1.481,14.547-0.307,21.018,3.391c1.679,0.959,2.262,3.098,1.303,4.775
				C230.579,182.844,229.398,183.478,228.184,183.478z"/>
			<path style="fill:#3D2107;" d="M313.424,183.478c-0.589,0-1.186-0.149-1.733-0.462c-5.048-2.885-10.479-3.765-16.149-2.609
				c-4.157,0.846-6.898,2.521-6.926,2.538c-1.64,1.013-3.795,0.517-4.816-1.117s-0.537-3.781,1.092-4.81
				c0.151-0.096,3.772-2.355,9.256-3.471c7.273-1.481,14.544-0.309,21.017,3.391c1.679,0.959,2.262,3.098,1.303,4.775
				C315.819,182.844,314.639,183.478,313.424,183.478z"/>
			<path id="XMLID_1690_" style="fill:#FFFFFF;" d="M283.23,321.97v94.295v94.295c-4.225,0.45-8.482,0.797-12.769,1.037
				s-8.601,0.372-12.941,0.393c-0.255,0.005-0.508,0.008-0.76,0.009S256.255,512,256,512c-3.695,0-7.372-0.078-11.03-0.233
				s-7.295-0.387-10.91-0.697v-94.55v-94.55h24.585H283.23z"/>
			<path id="XMLID_1688_" style="fill:#F7E5BF;" d="M257.52,321.98v95.005v95.005c-0.255,0.005-0.508,0.008-0.76,0.009
				S256.255,512,256,512c-3.695,0-7.372-0.078-11.03-0.233s-7.295-0.387-10.91-0.697c-0.19-0.015-0.378-0.03-0.565-0.045
				s-0.375-0.03-0.565-0.045v-94.5v-94.5h12.295H257.52z"/>
			<polygon id="XMLID_1608_" style="fill:#4C3328;" points="339.879,143.45 255.263,143.45 170.646,143.45 177.646,117.834 
				184.646,92.218 212.146,82.468 239.646,72.718 271.646,72.718 303.646,72.718 327.146,83.718 350.646,94.718 350.646,116.218 
				350.646,137.718 350.646,141.468 350.646,145.218 345.263,144.334 			"/>
			<path id="XMLID_1605_" style="fill:#FFFFFF;" d="M393.41,129.66c-2.2-8.015-2.665-16.753-3.619-25.175s-2.396-16.53-6.551-23.285
				c-4.33-7.04-11.022-12.082-18.141-16.666S350.435,55.825,344.4,50.62c-6.2-5.345-11.525-12.26-17.186-18.565
				s-11.659-12-19.204-14.905c-7.455-2.875-15.633-2.677-24.027-1.761s-17.007,2.551-25.332,2.551c-2.895,0-5.825-0.198-8.769-0.494
				s-5.901-0.691-8.851-1.086c-0.735-0.1-1.47-0.197-2.205-0.294s-1.47-0.191-2.205-0.286c-1.465-0.185-2.925-0.358-4.378-0.505
				s-2.898-0.27-4.333-0.355c-0.753-0.045-1.504-0.08-2.252-0.103s-1.494-0.034-2.236-0.032c-0.742,0.002-1.48,0.019-2.213,0.05
				s-1.464,0.079-2.189,0.144c-0.305,0.03-0.61,0.06-0.914,0.093S217.5,15.14,217.2,15.18c-0.3,0.04-0.6,0.083-0.9,0.129
				s-0.6,0.096-0.9,0.151c-1.045,0.185-2.077,0.415-3.097,0.695s-2.028,0.61-3.023,0.995c-7.54,2.91-13.538,8.605-19.199,14.909
				S179.095,45.275,172.9,50.62c-6.04,5.21-13.587,9.335-20.708,13.917S138.38,74.16,134.05,81.2
				c-4.155,6.755-5.595,14.862-6.546,23.285s-1.414,17.16-3.614,25.175c-2.09,7.6-6.15,15.107-9.688,22.806
				s-6.552,15.589-6.552,23.954c0,8.37,3.015,16.26,6.552,23.959s7.597,15.206,9.688,22.811c2.2,8.01,2.663,16.745,3.614,25.166
				s2.391,16.529,6.546,23.284c4.33,7.045,11.022,12.087,18.142,16.671s14.668,8.709,20.708,13.919
				c0.78,0.67,1.545,1.368,2.297,2.085s1.492,1.455,2.222,2.205c0.08,0.08,0.158,0.16,0.234,0.24s0.151,0.16,0.226,0.24
				c0.645,0.665,1.28,1.345,1.909,2.034s1.251,1.386,1.871,2.086c0.09,0.1,0.178,0.2,0.264,0.299s0.171,0.196,0.256,0.291
				c2.05,2.335,4.068,4.725,6.113,7.064s4.118,4.626,6.278,6.756c0.06,0.06,0.12,0.12,0.18,0.179s0.12,0.116,0.18,0.171
				c2.115,2.06,4.312,3.965,6.649,5.619s4.811,3.056,7.481,4.111c0,0,0,0,0.001,0s0.004,0,0.009,0
				c0.035,0.015,0.07,0.03,0.105,0.045s0.07,0.03,0.105,0.045h0.005h0.005c3.665,1.415,7.51,2.085,11.471,2.29
				s8.039-0.055,12.169-0.5c0.19-0.02,0.378-0.04,0.565-0.06s0.375-0.04,0.565-0.06c1.15-0.13,2.305-0.275,3.464-0.426
				s2.321-0.309,3.486-0.464c1.59-0.21,3.185-0.422,4.779-0.62s3.186-0.38,4.771-0.53c1.17-0.115,2.335-0.21,3.495-0.28
				s2.315-0.115,3.465-0.13c0.19-0.01,0.378-0.015,0.565-0.018s0.375-0.003,0.565-0.003c1.095,0,2.195,0.028,3.3,0.079
				c1.105,0.051,2.215,0.126,3.33,0.221c2.985,0.245,5.987,0.617,8.986,1.014s5.994,0.816,8.964,1.156
				c4.33,0.495,8.605,0.817,12.758,0.646c4.152-0.171,8.182-0.836,12.022-2.316c0.355-0.135,0.707-0.278,1.056-0.429
				s0.694-0.311,1.034-0.481c1.92-0.895,3.737-1.97,5.476-3.188s3.399-2.577,5.004-4.042c2.585-2.345,5.027-4.95,7.419-7.649
				s4.731-5.491,7.111-8.211c0.705-0.8,1.415-1.595,2.131-2.38s1.439-1.56,2.169-2.32c0.805-0.845,1.623-1.667,2.454-2.465
				s1.676-1.57,2.536-2.315c6.04-5.205,13.585-9.33,20.703-13.914s13.808-9.626,18.137-16.666
				c4.155-6.755,5.598-14.863,6.551-23.284s1.419-17.156,3.619-25.166c2.085-7.605,6.145-15.112,9.684-22.811
				s6.556-15.589,6.556-23.959c0-8.365-3.017-16.255-6.556-23.954S395.495,137.26,393.41,129.66z M358.38,181
				c-0.895,3.32-2.015,6.698-2.911,10.068S353.9,197.8,353.9,201.09c0,1.355,0.115,2.723,0.312,4.099s0.478,2.761,0.808,4.151
				c1.08,4.52,2.705,9.075,3.789,13.504s1.626,8.731,0.541,12.746c-1.5,5.535-5.64,9.918-10.114,14.084s-9.281,8.116-12.116,12.786
				c-2.965,4.885-4.368,11.083-6.063,16.963s-3.682,11.443-7.818,15.057c-4.26,3.725-10.07,4.965-16.112,5.78
				c-6.043,0.815-12.318,1.205-17.508,3.23c-0.96,0.375-1.913,0.82-2.859,1.318c-0.946,0.497-1.886,1.047-2.821,1.632
				c-2.08,1.3-4.14,2.78-6.211,4.264s-4.154,2.971-6.279,4.286c-2.025,1.25-4.085,2.34-6.209,3.118s-4.311,1.243-6.591,1.243
				c-1.665,0-3.28-0.248-4.858-0.684s-3.118-1.061-4.633-1.816c-2.72-1.355-5.35-3.125-7.95-4.965s-5.17-3.75-7.77-5.385
				c-0.185-0.115-0.367-0.227-0.549-0.339s-0.361-0.221-0.541-0.331c-0.775-0.46-1.55-0.89-2.329-1.283s-1.561-0.747-2.351-1.057
				c-5.19-2.025-11.465-2.415-17.506-3.23s-11.849-2.055-16.104-5.78c-4.14-3.615-6.13-9.177-7.825-15.057
				s-3.095-12.078-6.055-16.963c-2.835-4.67-7.645-8.62-12.121-12.786s-8.619-8.549-10.119-14.084
				c-1.095-4.05-0.535-8.387,0.566-12.851s2.744-9.054,3.814-13.609c0.32-1.355,0.587-2.705,0.775-4.046s0.295-2.674,0.295-3.994
				c0-3.235-0.65-6.542-1.524-9.859s-1.971-6.641-2.866-9.911c-0.705-2.565-1.282-5.095-1.527-7.56s-0.158-4.865,0.467-7.17
				c0.81-2.985,2.385-5.632,4.365-8.091s4.365-4.729,6.795-6.959c0.305-0.28,0.613-0.56,0.92-0.84s0.615-0.56,0.92-0.84
				c1.15-1.05,2.29-2.097,3.381-3.16s2.134-2.14,3.089-3.25c0.52-0.6,1.015-1.21,1.479-1.832s0.896-1.258,1.291-1.908
				c2.965-4.88,4.368-11.075,6.063-16.954s3.683-11.441,7.818-15.056c2.915-2.55,6.555-3.935,10.499-4.816s8.191-1.259,12.321-1.794
				c1.905-0.245,3.782-0.525,5.594-0.904s3.556-0.856,5.196-1.496c5.14-2.01,10.013-5.975,15.036-9.437s10.199-6.422,15.944-6.422
				c2.28,0,4.467,0.465,6.591,1.242s4.184,1.867,6.209,3.117c3.08,1.905,6.075,4.175,9.074,6.271s6.001,4.019,9.096,5.229
				c5.19,2.03,11.465,2.42,17.506,3.234c6.041,0.814,11.849,2.051,16.104,5.776c4.14,3.615,6.13,9.177,7.825,15.057
				s3.095,12.078,6.055,16.963c0.395,0.645,0.825,1.278,1.286,1.899s0.954,1.231,1.474,1.831h0.005h0.005
				c0.955,1.11,1.998,2.188,3.089,3.25s2.231,2.11,3.381,3.16c2.735,2.495,5.53,4.998,7.869,7.716s4.221,5.654,5.131,9.014
				c0.61,2.26,0.705,4.61,0.479,7.021S359.055,178.495,358.38,181z"/>
			<path id="XMLID_1603_" style="fill:#F7E5BF;" d="M238.08,335.44c-0.695-0.28-1.378-0.585-2.048-0.915s-1.327-0.685-1.972-1.065
				c-0.19-0.105-0.38-0.212-0.569-0.324s-0.376-0.226-0.561-0.346c-1.465-0.915-2.875-1.933-4.24-3.031s-2.685-2.279-3.97-3.519
				c-1.405-1.345-2.77-2.762-4.114-4.222s-2.666-2.962-3.986-4.478c-0.035-0.05-0.075-0.1-0.117-0.149s-0.088-0.096-0.133-0.141
				c-0.13-0.155-0.26-0.307-0.39-0.46s-0.26-0.305-0.39-0.46c-0.075-0.08-0.148-0.163-0.219-0.246s-0.141-0.169-0.211-0.254
				c-0.23-0.265-0.46-0.533-0.691-0.8s-0.464-0.535-0.699-0.8c-0.02-0.03-0.045-0.06-0.071-0.09s-0.054-0.06-0.079-0.09
				c-1.81-2.1-3.63-4.185-5.501-6.18s-3.794-3.9-5.809-5.64c-4.19-3.615-9.108-6.708-14.104-9.795s-10.071-6.17-14.576-9.765
				c-0.12-0.09-0.238-0.182-0.355-0.277s-0.235-0.192-0.355-0.292c-1.845-1.51-3.585-3.113-5.175-4.844s-3.03-3.591-4.275-5.616
				c-1.025-1.67-1.885-3.42-2.612-5.236s-1.322-3.699-1.817-5.634c-0.04-0.14-0.078-0.283-0.113-0.426s-0.067-0.289-0.097-0.434
				c-1.405-5.8-1.98-12.037-2.608-18.296s-1.307-12.539-2.922-18.424c-0.9-3.3-2.175-6.58-3.619-9.865s-3.056-6.575-4.631-9.895
				c-0.04-0.085-0.08-0.167-0.12-0.25s-0.08-0.165-0.12-0.25c-2.015-4.255-3.953-8.557-5.386-12.959s-2.364-8.901-2.364-13.551
				c0-8.365,3.017-16.255,6.556-23.954s7.599-15.206,9.684-22.806c2.2-8.015,2.665-16.753,3.619-25.175s2.396-16.53,6.551-23.285
				c4.33-7.04,11.02-12.08,18.138-16.662S196.27,55.83,202.31,50.62c6.195-5.345,11.52-12.258,17.182-18.561
				S231.155,20.06,238.7,17.15c0.385-0.15,0.77-0.29,1.158-0.421s0.778-0.254,1.173-0.369c-0.735-0.1-1.47-0.197-2.205-0.294
				s-1.47-0.191-2.205-0.286c-1.465-0.185-2.925-0.355-4.378-0.501s-2.898-0.269-4.333-0.359c-1.51-0.09-3.007-0.14-4.49-0.135
				s-2.95,0.065-4.4,0.195c-0.305,0.03-0.61,0.06-0.914,0.093S217.5,15.14,217.2,15.18c-0.3,0.04-0.6,0.083-0.9,0.129
				s-0.6,0.096-0.9,0.151c-1.045,0.185-2.077,0.415-3.097,0.695s-2.028,0.61-3.023,0.995c-7.54,2.91-13.538,8.605-19.199,14.909
				S179.095,45.275,172.9,50.62c-6.04,5.21-13.587,9.335-20.708,13.917S138.38,74.16,134.05,81.2
				c-4.155,6.755-5.595,14.862-6.546,23.285s-1.414,17.16-3.614,25.175c-2.09,7.6-6.15,15.107-9.688,22.806
				s-6.552,15.589-6.552,23.954c0,8.37,3.015,16.26,6.552,23.959s7.597,15.206,9.688,22.811c2.2,8.01,2.663,16.745,3.614,25.166
				s2.391,16.529,6.546,23.284c4.33,7.045,11.022,12.087,18.142,16.671s14.668,8.709,20.708,13.919
				c0.78,0.67,1.545,1.368,2.297,2.085s1.492,1.455,2.222,2.205c0.08,0.08,0.158,0.16,0.234,0.24s0.151,0.16,0.226,0.24
				c0.645,0.665,1.28,1.345,1.909,2.034s1.251,1.386,1.871,2.086c0.09,0.1,0.178,0.2,0.264,0.299s0.171,0.196,0.256,0.291
				c2.05,2.335,4.068,4.725,6.113,7.064s4.118,4.626,6.278,6.756c0.06,0.06,0.12,0.12,0.18,0.179s0.12,0.116,0.18,0.171
				c2.115,2.06,4.312,3.965,6.649,5.619s4.811,3.056,7.481,4.111c0,0,0,0,0.001,0s0.004,0,0.009,0
				c0.035,0.015,0.07,0.03,0.105,0.045s0.07,0.03,0.105,0.045h0.005h0.005c3.665,1.415,7.51,2.085,11.471,2.29
				s8.039-0.055,12.169-0.5c0.19-0.02,0.378-0.04,0.565-0.06s0.375-0.04,0.565-0.06c1.15-0.13,2.305-0.275,3.464-0.426
				s2.321-0.309,3.486-0.464c-0.39-0.115-0.778-0.237-1.163-0.367s-0.768-0.268-1.148-0.413c-0.105-0.04-0.21-0.08-0.314-0.122
				S238.18,335.49,238.08,335.44z"/>
			<path id="XMLID_1602_" style="fill:#E7BDB3;" d="M201.519,222.218c0,3.567,1.446,6.796,3.783,9.133
				c2.337,2.337,5.566,3.783,9.133,3.783s6.796-1.446,9.133-3.783c2.337-2.337,3.783-5.566,3.783-9.133
				c0-3.567-1.446-6.796-3.783-9.133c-2.337-2.337-5.566-3.783-9.133-3.783s-6.796,1.446-9.133,3.783
				C202.965,215.422,201.519,218.651,201.519,222.218z"/>
			<path id="XMLID_1601_" style="fill:#E7BDB3;" d="M287.472,222.218c0,3.567,1.446,6.796,3.783,9.133
				c2.337,2.337,5.566,3.783,9.133,3.783c3.567,0,6.796-1.446,9.133-3.783c2.337-2.337,3.783-5.566,3.783-9.133
				c0-3.567-1.446-6.796-3.783-9.133c-2.337-2.337-5.566-3.783-9.133-3.783c-3.567,0-6.796,1.446-9.133,3.783
				C288.917,215.422,287.472,218.651,287.472,222.218z"/>
		</g>
	</g>
</g>
</svg>
